<svg  version="1.0" xmlns="http://www.w3.org/2000/svg"  width="300.000000pt" height="254.000000pt" viewBox="0 0 300.000000 254.000000"  preserveAspectRatio="xMidYMid meet">  <g transform="translate(0.000000,254.000000) scale(0.100000,-0.100000)" fill="#ffffff" stroke="none"> <path d="M2762 2505 c-137 -69 -244 -223 -313 -448 -81 -267 -169 -476 -222 -525 -32 -30 -110 -39 -432 -52 -148 -6 -376 -15 -505 -20 -129 -6 -298 -13 -375 -17 -164 -7 -184 -2 -362 84 -109 52 -123 64 -191 152 -14 19 -39 35 -65 42 -36 9 -43 9 -54 -7 -7 -10 -13 -33 -13 -51 0 -49 -23 -96 -78 -161 -72 -84 -132 -175 -132 -199 0 -14 19 -36 52 -62 54 -44 62 -47 145 -55 169 -16 251 -149 267 -427 l6 -105 -162 -175 c-263 -283 -291 -322 -256 -357 33 -33 101 -1 218 102 36 31 91 73 123 94 64 40 215 140 317 209 37 25 76 43 92 43 55 0 99 -75 119 -200 16 -106 6 -181 -38 -267 -45 -88 -39 -103 43 -103 132 0 153 47 179 420 8 113 15 213 15 222 0 16 14 17 178 12 227 -7 447 -22 493 -34 25 -7 56 -30 96 -74 150 -160 135 -267 -49 -366 -61 -33 -83 -59 -73 -89 17 -53 156 -35 255 32 61 42 154 131 196 188 39 54 43 90 18 175 -8 29 -14 68 -12 86 4 46 33 47 127 5 42 -20 124 -52 181 -72 171 -59 211 -82 240 -140 22 -44 25 -64 26 -163 1 -63 6 -118 12 -124 5 -5 31 -10 58 -10 41 0 52 5 73 28 23 27 23 33 18 129 -6 105 -31 220 -68 319 -18 49 -39 76 -123 160 -112 111 -116 117 -196 331 -29 77 -68 170 -86 208 -61 120 -58 148 31 382 29 77 70 199 90 270 57 204 87 275 196 465 57 100 68 140 44 163 -22 22 -21 22 -103 -18z m-1782 -1100 c14 -17 38 -633 26 -679 -6 -23 -11 -26 -47 -26 -84 0 -79 -23 -79 364 0 188 3 346 7 349 12 13 81 7 93 -8z m317 -1 c3 -9 -24 -78 -64 -161 l-71 -145 89 -184 c49 -102 89 -192 89 -201 0 -23 -116 -12 -140 14 -21 23 -170 335 -170 358 0 25 138 308 157 323 25 18 102 16 110 -4z m682 6 c10 -5 35 -53 56 -111 l38 -102 39 99 c21 55 46 105 55 112 19 14 81 16 102 3 16 -10 9 -30 -77 -210 l-50 -103 33 -72 c18 -39 58 -122 89 -183 31 -62 56 -119 56 -128 0 -18 -55 -20 -111 -5 -35 10 -38 14 -85 135 -26 69 -49 123 -51 122 -1 -2 -27 -62 -56 -133 l-52 -129 -57 0 c-32 0 -62 5 -68 11 -8 8 15 63 75 189 47 97 85 184 85 191 0 7 -30 77 -66 154 -36 77 -63 147 -60 155 6 17 77 21 105 5z m-211 -6 c17 -5 22 -14 22 -39 0 -60 -6 -65 -75 -65 l-63 0 2 -297 1 -298 -42 -3 c-23 -2 -51 2 -62 8 -20 10 -21 21 -23 298 l-3 287 -70 5 -70 5 -3 38 c-5 65 0 67 192 67 94 0 181 -3 194 -6z"/> </g> </svg> 